<svg width="24" height="21" viewBox="0 0 24 21" fill="none" xmlns="http://www.w3.org/2000/svg">
<path d="M4.50943e-06 2.25C4.50943e-06 1.65326 0.237057 1.08097 0.659014 0.65901C1.08097 0.237053 1.65327 0 2.25 0H18.75C19.3467 0 19.919 0.237053 20.341 0.65901C20.763 1.08097 21 1.65326 21 2.25V18.042C21 18.492 20.925 19.023 20.643 19.5H21.75C21.9489 19.5 22.1397 19.421 22.2803 19.2803C22.421 19.1397 22.5 18.9489 22.5 18.75V5.25C22.5 5.05109 22.579 4.86032 22.7197 4.71967C22.8603 4.57902 23.0511 4.5 23.25 4.5C23.4489 4.5 23.6397 4.57902 23.7803 4.71967C23.921 4.86032 24 5.05109 24 5.25V18.75C24 19.3467 23.763 19.919 23.341 20.341C22.919 20.7629 22.3467 21 21.75 21H2.2455C1.95024 21 1.65788 20.9418 1.38515 20.8286C1.11242 20.7155 0.864676 20.5497 0.656103 20.3407C0.44753 20.1317 0.282222 19.8837 0.16964 19.6107C0.0570577 19.3377 -0.000587199 19.0453 4.50943e-06 18.75V2.25ZM18 19.5C18.555 19.5 18.981 19.1835 19.2795 18.8385C19.4175 18.6795 19.5 18.42 19.5 18.042V2.25C19.5 2.05109 19.421 1.86032 19.2803 1.71967C19.1397 1.57902 18.9489 1.5 18.75 1.5H2.25C2.05109 1.5 1.86033 1.57902 1.71967 1.71967C1.57902 1.86032 1.5 2.05109 1.5 2.25V18.75C1.5 19.167 1.8345 19.5 2.2455 19.5H18Z" fill="white"/>
<path d="M3 3H18V6H3V3ZM3 7.5H9V12H3V7.5ZM3 13.5H9V15H3V13.5ZM3 16.5H9V18H3V16.5ZM10.5 7.5H13.5V9H10.5V7.5ZM15 7.5H18V9H15V7.5ZM10.5 10.5H13.5V12H10.5V10.5ZM15 10.5H18V12H15V10.5ZM10.5 13.5H13.5V15H10.5V13.5ZM15 13.5H18V15H15V13.5ZM10.5 16.5H13.5V18H10.5V16.5ZM15 16.5H18V18H15V16.5Z" fill="white"/>
</svg>
