<svg width="24" height="25" viewBox="0 0 24 25" fill="none" xmlns="http://www.w3.org/2000/svg">
<path d="M8 14.5C7.71667 14.5 7.47933 14.404 7.288 14.212C7.09667 14.02 7.00067 13.7827 7 13.5C6.99933 13.2173 7.09533 12.98 7.288 12.788C7.48067 12.596 7.718 12.5 8 12.5C8.282 12.5 8.51967 12.596 8.713 12.788C8.90633 12.98 9.002 13.2173 9 13.5C8.998 13.7827 8.902 14.0203 8.712 14.213C8.522 14.4057 8.28467 14.5013 8 14.5ZM12 14.5C11.7167 14.5 11.4793 14.404 11.288 14.212C11.0967 14.02 11.0007 13.7827 11 13.5C10.9993 13.2173 11.0953 12.98 11.288 12.788C11.4807 12.596 11.718 12.5 12 12.5C12.282 12.5 12.5197 12.596 12.713 12.788C12.9063 12.98 13.002 13.2173 13 13.5C12.998 13.7827 12.902 14.0203 12.712 14.213C12.522 14.4057 12.2847 14.5013 12 14.5ZM16 14.5C15.7167 14.5 15.4793 14.404 15.288 14.212C15.0967 14.02 15.0007 13.7827 15 13.5C14.9993 13.2173 15.0953 12.98 15.288 12.788C15.4807 12.596 15.718 12.5 16 12.5C16.282 12.5 16.5197 12.596 16.713 12.788C16.9063 12.98 17.002 13.2173 17 13.5C16.998 13.7827 16.902 14.0203 16.712 14.213C16.522 14.4057 16.2847 14.5013 16 14.5ZM5 22.5C4.45 22.5 3.97933 22.3043 3.588 21.913C3.19667 21.5217 3.00067 21.0507 3 20.5V6.5C3 5.95 3.196 5.47934 3.588 5.088C3.98 4.69667 4.45067 4.50067 5 4.5H6V3.5C6 3.21667 6.096 2.97934 6.288 2.788C6.48 2.59667 6.71733 2.50067 7 2.5C7.28267 2.49934 7.52033 2.59534 7.713 2.788C7.90567 2.98067 8.00133 3.218 8 3.5V4.5H16V3.5C16 3.21667 16.096 2.97934 16.288 2.788C16.48 2.59667 16.7173 2.50067 17 2.5C17.2827 2.49934 17.5203 2.59534 17.713 2.788C17.9057 2.98067 18.0013 3.218 18 3.5V4.5H19C19.55 4.5 20.021 4.696 20.413 5.088C20.805 5.48 21.0007 5.95067 21 6.5V20.5C21 21.05 20.8043 21.521 20.413 21.913C20.0217 22.305 19.5507 22.5007 19 22.5H5ZM5 20.5H19V10.5H5V20.5ZM5 8.5H19V6.5H5V8.5Z" fill="white"/>
</svg>
